<svg width="878" height="560" viewBox="0 0 878 560" fill="none" xmlns="http://www.w3.org/2000/svg">
  <!-- Face outline -->
  <ellipse cx="439" cy="200" rx="120" ry="140" fill="none" stroke="#1E88E5" stroke-width="2" opacity="0.6"/>
  
  <!-- Facial recognition points -->
  <circle cx="390" cy="180" r="5" fill="#1E88E5"/>
  <circle cx="488" cy="180" r="5" fill="#1E88E5"/>
  <circle cx="439" cy="220" r="5" fill="#1E88E5"/>
  <circle cx="410" cy="250" r="5" fill="#1E88E5"/>
  <circle cx="468" cy="250" r="5" fill="#1E88E5"/>
  <circle cx="439" cy="280" r="5" fill="#1E88E5"/>
  
  <!-- Scan lines -->
  <line x1="320" y1="180" x2="390" y2="180" stroke="#3E92CC" stroke-width="1.5" opacity="0.5"/>
  <line x1="488" y1="180" x2="558" y2="180" stroke="#3E92CC" stroke-width="1.5" opacity="0.5"/>
  <line x1="360" y1="220" x2="439" y2="220" stroke="#3E92CC" stroke-width="1.5" opacity="0.5"/>
  <line x1="439" y1="220" x2="518" y2="220" stroke="#3E92CC" stroke-width="1.5" opacity="0.5"/>
  
  <!-- Mesh lines connecting points -->
  <line x1="390" y1="180" x2="410" y2="250" stroke="#1E88E5" stroke-width="1" opacity="0.3"/>
  <line x1="488" y1="180" x2="468" y2="250" stroke="#1E88E5" stroke-width="1" opacity="0.3"/>
  <line x1="410" y1="250" x2="439" y2="280" stroke="#1E88E5" stroke-width="1" opacity="0.3"/>
  <line x1="468" y1="250" x2="439" y2="280" stroke="#1E88E5" stroke-width="1" opacity="0.3"/>
  <line x1="390" y1="180" x2="439" y2="220" stroke="#1E88E5" stroke-width="1" opacity="0.3"/>
  <line x1="488" y1="180" x2="439" y2="220" stroke="#1E88E5" stroke-width="1" opacity="0.3"/>
  
  <!-- Scanning frame -->
  <rect x="300" y="80" width="278" height="280" rx="8" fill="none" stroke="#1E88E5" stroke-width="2" stroke-dasharray="10 5" opacity="0.4"/>
  
  <!-- Corner brackets -->
  <path d="M300 80L300 100M300 80L320 80" stroke="#3E92CC" stroke-width="3" stroke-linecap="round"/>
  <path d="M578 80L578 100M578 80L558 80" stroke="#3E92CC" stroke-width="3" stroke-linecap="round"/>
  <path d="M300 360L300 340M300 360L320 360" stroke="#3E92CC" stroke-width="3" stroke-linecap="round"/>
  <path d="M578 360L578 340M578 360L558 360" stroke="#3E92CC" stroke-width="3" stroke-linecap="round"/>
  
  <!-- Glow effect -->
  <ellipse cx="439" cy="200" rx="140" ry="160" fill="#1E88E5" opacity="0.1"/>
</svg>
