<svg width="289" height="334" viewBox="0 0 289 334" fill="none" xmlns="http://www.w3.org/2000/svg">
  <!-- ID Card outline -->
  <rect x="30" y="60" width="229" height="240" rx="12" fill="#1a1f3a" stroke="#3E92CC" stroke-width="2"/>
  
  <!-- Photo placeholder -->
  <circle cx="90" cy="130" r="35" fill="#0A2463" stroke="#1E88E5" stroke-width="2"/>
  <circle cx="90" cy="125" r="15" fill="#3E92CC"/>
  <path d="M65 155C65 145 75 140 90 140C105 140 115 145 115 155" fill="#3E92CC"/>
  
  <!-- Text lines -->
  <rect x="135" y="110" width="100" height="8" rx="4" fill="#3E92CC" opacity="0.6"/>
  <rect x="135" y="130" width="80" height="6" rx="3" fill="#1E88E5" opacity="0.5"/>
  <rect x="135" y="145" width="90" height="6" rx="3" fill="#1E88E5" opacity="0.5"/>
  
  <!-- Bottom details -->
  <rect x="40" y="190" width="60" height="6" rx="3" fill="#3E92CC" opacity="0.4"/>
  <rect x="40" y="205" width="80" height="6" rx="3" fill="#3E92CC" opacity="0.4"/>
  <rect x="40" y="220" width="70" height="6" rx="3" fill="#3E92CC" opacity="0.4"/>
  
  <!-- Verification checkmark badge -->
  <circle cx="235" cy="85" r="18" fill="#1E88E5"/>
  <path d="M228 85L233 90L242 81" stroke="white" stroke-width="2.5" stroke-linecap="round" stroke-linejoin="round"/>
</svg>
